<?xml version="1.0" standalone="no"?><!DOCTYPE svg PUBLIC "-//W3C//DTD SVG 1.1//EN" "http://www.w3.org/Graphics/SVG/1.1/DTD/svg11.dtd"><svg t="1503281097204" class="icon" style="" viewBox="0 0 1025 1024" version="1.1" xmlns="http://www.w3.org/2000/svg" p-id="781" xmlns:xlink="http://www.w3.org/1999/xlink" width="200.1953125" height="200"><defs><style type="text/css"></style></defs><path d="M278.912 913.92c-6.592-2.112-16.064-3.264-28.416-3.264L205.568 910.656l0 66.816 48.384 0c8.32 0 14.208-0.32 17.472-0.96 5.952-1.088 10.88-2.816 14.848-5.312 3.968-2.432 7.232-6.08 9.792-10.752 2.56-4.736 3.84-10.176 3.84-16.384 0-7.232-1.792-13.568-5.568-18.88C290.688 919.872 285.504 916.096 278.912 913.92z" fill="#efa304" p-id="782"></path><path d="M272.128 885.568c6.592-1.984 11.456-5.184 14.72-9.664s4.992-10.176 4.992-17.024c0-6.464-1.536-12.096-4.608-17.024-3.136-4.928-7.552-8.256-13.248-10.048-5.76-1.792-15.616-2.752-29.568-2.752L205.568 829.056l0 58.752 42.048 0C259.008 887.808 267.2 887.04 272.128 885.568z" fill="#efa304" p-id="783"></path><path d="M929.6 302.976c-25.024 0-48.512 9.216-66.304 25.856-18.048 16.96-28.032 39.68-28.032 63.936 0 11.136 2.24 22.208 6.528 32.512l-97.664 145.088L609.024 275.072C617.472 261.312 622.08 245.568 622.08 229.376 622.016 180.032 579.712 139.84 527.552 139.84c-5.184 0-9.344 0.576-12.288 1.024C468.544 146.688 433.344 184.896 433.344 229.568c0 14.464 3.584 28.352 10.432 41.024L301.504 562.304l-116.352-144.64C187.52 409.728 188.672 401.6 188.672 393.28c0-49.344-42.368-89.536-94.464-89.536-24.96 0-48.448 9.216-66.176 25.792C9.92 346.496 0 369.28 0 393.344c0.064 36.736 23.488 69.248 58.432 82.88l68.992 341.824L127.424 1024l754.88 0 0-198.784 81.472-348.928c36.032-13.248 60.224-46.08 60.16-83.712C1024 343.168 981.632 302.976 929.6 302.976zM320.832 969.472c-3.84 7.808-8.576 13.824-14.272 18.048-5.632 4.224-12.736 7.424-21.248 9.6-8.576 2.176-19.008 3.264-31.36 3.264L179.904 1000.384l0-194.304 72.896 0c14.848 0 26.752 1.984 35.776 5.952 8.96 3.968 16 9.92 21.056 18.112s7.616 16.768 7.616 25.664c0 8.256-2.24 16.128-6.72 23.424s-11.328 13.248-20.416 17.728c11.776 3.456 20.8 9.344 27.136 17.6s9.408 18.112 9.408 29.44C326.592 953.216 324.672 961.664 320.832 969.472zM507.52 1000.448 362.56 1000.448l0-194.304 140.416 0 0 22.912L388.224 829.056l0 59.52 107.52 0 0 22.784-107.52 0 0 66.112L507.52 977.472 507.52 1000.448zM680.064 974.784c-5.952 9.152-14.464 16.256-25.536 21.312-11.072 5.056-23.552 7.616-37.44 7.616-17.536 0-32.32-2.56-44.16-7.68s-21.184-12.8-27.968-23.104-10.304-21.952-10.688-34.944l24.256-2.112c1.152 9.728 3.84 17.664 8 23.936 4.224 6.272 10.752 11.264 19.584 15.104 8.896 3.84 18.816 5.76 29.824 5.76 9.792 0 18.496-1.408 25.984-4.352s13.056-6.912 16.768-12.032 5.504-10.624 5.504-16.64c0-6.08-1.728-11.456-5.312-15.936-3.52-4.544-9.344-8.384-17.472-11.52-5.184-1.984-16.704-5.184-34.56-9.472-17.856-4.224-30.4-8.32-37.504-12.096-9.344-4.8-16.192-10.88-20.736-18.048s-6.784-15.232-6.784-24.192c0-9.792 2.752-19.008 8.32-27.52s13.76-14.976 24.448-19.456c10.688-4.352 22.592-6.656 35.648-6.656 14.4 0 27.136 2.304 38.144 6.976 11.008 4.608 19.456 11.456 25.344 20.416 5.888 9.024 9.088 19.264 9.472 30.656l-24.64 1.856c-1.344-12.288-5.824-21.568-13.44-27.84-7.68-6.336-18.944-9.408-33.856-9.408-15.552 0-26.88 2.88-33.984 8.576s-10.688 12.544-10.688 20.544c0 6.976 2.56 12.736 7.552 17.28 4.928 4.48 17.856 9.152 38.72 13.888 20.928 4.672 35.264 8.832 43.072 12.352 11.328 5.184 19.648 11.84 25.024 19.84 5.44 8 8.128 17.216 8.128 27.648C688.96 955.968 685.952 965.632 680.064 974.784zM863.488 829.056l-64.32 0 0 171.392-25.664 0 0-171.392-64 0 0-22.912 153.984 0L863.488 829.056z" fill="#efa304" p-id="784"></path></svg>