<?xml version="1.0" encoding="UTF-8"?>
<svg width="16px" height="16px" viewBox="0 0 16 16" version="1.1" xmlns="http://www.w3.org/2000/svg" xmlns:xlink="http://www.w3.org/1999/xlink">
    <!-- Generator: Sketch 41.2 (35397) - http://www.bohemiancoding.com/sketch -->
    <title>评论</title>
    <desc>Created with Sketch.</desc>
    <defs></defs>
    <g id="Page-1" stroke="none" stroke-width="1" fill="none" fill-rule="evenodd">
        <g id="评论" fill="#999898">
            <path d="M13.9914012,0.0062014742 L2.01363068,0.0062014742 C0.910896749,0.0062014742 0.0173234158,0.989862722 0.0173234158,2.20364971 L0.0173234158,11.0028762 C0.0173234158,12.2158787 0.910896749,13.2003244 2.01363068,13.2003244 L5.93337941,13.2003244 L8.00247943,15.9817461 L10.0661036,13.2003244 L13.9912917,13.2003244 C15.0940256,13.2003244 15.9883473,12.2158787 15.9883473,11.0028762 L15.9883473,2.20364971 C15.9884203,0.989862722 15.0940256,0.0062014742 13.9914012,0.0062014742 Z M3.47415898,8.27449545 C2.63058049,8.27449545 1.94671534,7.52089958 1.94671534,6.5913051 C1.94671534,5.66171062 2.63058049,4.90811475 3.47415898,4.90811475 C4.31773747,4.90811475 5.00160262,5.66171062 5.00160262,6.5913051 C5.00160262,7.52089958 4.31773747,8.27449545 3.47415898,8.27449545 Z M7.97606741,8.27449545 C7.13248892,8.27449545 6.44862377,7.52089958 6.44862377,6.5913051 C6.44862377,5.66171062 7.13248892,4.90811475 7.97606741,4.90811475 C8.8196459,4.90811475 9.50351105,5.66171062 9.50351105,6.5913051 C9.50351105,7.52089958 8.81966414,8.27449545 7.97606741,8.27449545 Z M12.4779941,8.27449545 C11.6344156,8.27449545 10.9505504,7.52089958 10.9505504,6.5913051 C10.9505504,5.66171062 11.6344156,4.90811475 12.4779941,4.90811475 C13.3215726,4.90811475 14.0054377,5.66171062 14.0054377,6.5913051 C14.0054377,7.52089958 13.3215726,8.27449545 12.4779941,8.27449545 Z" id="Shape"></path>
        </g>
    </g>
</svg>