<?xml version="1.0" standalone="no"?><!DOCTYPE svg PUBLIC "-//W3C//DTD SVG 1.1//EN" "http://www.w3.org/Graphics/SVG/1.1/DTD/svg11.dtd"><svg t="1488442123179" class="icon" style="" viewBox="0 0 1024 1024" version="1.1" xmlns="http://www.w3.org/2000/svg" p-id="1139" xmlns:xlink="http://www.w3.org/1999/xlink" width="200" height="200"><defs><style type="text/css"></style></defs><path d="M192 640 68 640l0 64L192 704c17.688 0 32-14.312 32-32S209.688 640 192 640zM217.84 332.592l-52.936 31.28c1.44 5.096 3.688 9.968 7.688 13.968l90.504 90.504c12.504 12.528 32.752 12.528 45.248 0 12.528-12.504 12.528-32.752 0-45.248L217.84 332.592zM480 228.248 480 352c0 17.688 14.312 32 32 32s32-14.312 32-32L544 224l-32 0L480 228.248zM806.16 332.592 715.656 423.096c-12.528 12.504-12.528 32.752 0 45.248 12.504 12.528 32.752 12.528 45.248 0l85.592-85.592L806.16 332.592zM832 640c-17.688 0-32 14.312-32 32s14.312 32 32 32l108 0 0-64L832 640z" p-id="1140" fill="#ffffff"></path><path d="M512 192C246.904 192 32 406.904 32 672c0 56.184 10.16 109.872 27.904 160l904.184 0C981.84 781.872 992 728.184 992 672 992 406.904 777.096 192 512 192zM423.44 768c13.248-36.968 47-64 88.56-64s75.312 27.032 88.56 64L423.44 768zM660.096 740l187.44-269.72L580.56 656.064c0.784 0.376 1.44 0.936 2.184 1.312C561.376 646.624 537.56 640 512 640c-77.128 0-140.752 55.184-155.624 128L107.56 768C99.872 736.248 96 704.128 96 672c0-229.376 186.624-416 416-416s416 186.624 416 416c0 32.128-3.872 64.248-11.56 96L667.624 768" p-id="1141" fill="#ffffff"></path></svg>