<?xml version="1.0" encoding="UTF-8"?>
<svg width="16px" height="16px" viewBox="0 0 16 16" version="1.1" xmlns="http://www.w3.org/2000/svg" xmlns:xlink="http://www.w3.org/1999/xlink">
    <!-- Generator: Sketch 41.2 (35397) - http://www.bohemiancoding.com/sketch -->
    <title>转发</title>
    <desc>Created with Sketch.</desc>
    <defs></defs>
    <g id="Page-1" stroke="none" stroke-width="1" fill="none" fill-rule="evenodd">
        <g id="转发" fill="#999898">
            <path d="M1.14512895,9.14179756 C0.514398675,9.14053326 0.0018909283,9.65048359 -1.26881091e-16,10.2812123 L-1.26881091e-16,14.8605853 C0.0018909283,15.491314 0.514398675,16.0012643 1.14512895,16 L14.8546768,16 C15.485407,16.0012643 15.9979148,15.491314 15.9998057,14.8605853 L15.9998057,10.2812123 C15.9973559,9.87291372 15.7772675,9.49693723 15.4224457,9.29490953 C15.0676239,9.09288182 14.6319745,9.09549572 14.2796024,9.30176659 C13.9272304,9.50803746 13.7116694,9.88662785 13.7141192,10.2949264 L13.7141192,13.1531774 C13.7111183,13.3047378 13.6480176,13.4488948 13.5387054,13.5539204 C13.4293931,13.6589459 13.2828282,13.7162321 13.1312691,13.7131706 L2.86853659,13.7131706 C2.71671589,13.7171575 2.56962194,13.6601774 2.46010557,13.5549558 C2.35058921,13.4497342 2.28777325,13.3050361 2.28568653,13.1531774 L2.28568653,10.2960693 C2.28568653,9.65836272 1.76912137,9.14179756 1.14512895,9.14179756 L1.14512895,9.14179756 Z M10.857011,6.33040313 L10.857011,8.04009666 C10.857011,8.67208898 11.236435,8.82865852 11.6912866,8.40237797 L15.9049497,4.44356891 C16.0296705,4.30497797 16.0301628,4.09474841 15.9060926,3.95557483 L11.7141435,0.228762938 C11.2410064,-0.189517703 10.857011,-0.0192340469 10.857011,0.617329641 L10.857011,2.33159455 C4.99079655,2.22873866 2.28568653,5.40927145 2.28568653,8.61266113 C2.28568653,8.61266113 3.15881878,6.32811744 10.857011,6.32811744 L10.857011,6.33040313 Z" id="Shape"></path>
        </g>
    </g>
</svg>