<?xml version="1.0" encoding="UTF-8"?>
<svg width="16px" height="16px" viewBox="0 0 16 16" version="1.1" xmlns="http://www.w3.org/2000/svg" xmlns:xlink="http://www.w3.org/1999/xlink">
    <!-- Generator: Sketch 41.2 (35397) - http://www.bohemiancoding.com/sketch -->
    <title>分数</title>
    <desc>Created with Sketch.</desc>
    <defs></defs>
    <g id="Page-1" stroke="none" stroke-width="1" fill="none" fill-rule="evenodd">
        <g id="分数" fill="#999898">
            <g id="Fill-1">
                <g id="KOL详情">
                    <path d="M15.714014,7.0913518 C14.5869029,8.47268513 12.5931251,10.7526851 12.5931251,10.7526851 C12.5931251,10.7526851 12.9184585,13.2566851 13.1015696,14.9669074 C13.1815696,15.8380185 12.5566807,16.2157962 11.850014,15.8762407 C10.5042362,15.1962407 8.45534735,14.1420185 7.9957918,13.905574 C7.52734735,14.1393518 5.45890291,15.1749074 4.09890291,15.8540185 C3.38245846,16.1926851 2.75045846,15.8157962 2.83134735,14.945574 C3.01712513,13.2380185 3.34601402,10.737574 3.34601402,10.737574 C3.34601402,10.737574 1.32912513,8.46112958 0.187791798,7.08246291 C-0.215763758,6.58201847 0.0446806868,5.86912958 0.838458465,5.73757402 C2.4597918,5.42912958 4.97268069,4.93846291 4.97268069,4.93846291 C4.97268069,4.93846291 6.34690291,2.39090736 7.21712513,0.830018468 C7.69534735,-0.120203754 8.02601402,-0.00909264307 8.08201402,0.0184629125 C8.23045846,0.0691295792 8.46245846,0.254907357 8.76734735,0.830907357 C9.62690291,2.39446291 10.9851251,4.94468513 10.9851251,4.94468513 C10.9851251,4.94468513 13.4686807,5.43712958 15.0704585,5.74468513 C15.8562362,5.87624069 16.1131251,6.59001847 15.714014,7.0913518 L15.714014,7.0913518 Z" id="Fill-1"></path>
                </g>
            </g>
        </g>
    </g>
</svg>