<?xml version="1.0" encoding="utf-8"?>
<!-- Generator: Adobe Illustrator 18.0.0, SVG Export Plug-In . SVG Version: 6.00 Build 0)  -->
<!DOCTYPE svg PUBLIC "-//W3C//DTD SVG 1.1//EN" "http://www.w3.org/Graphics/SVG/1.1/DTD/svg11.dtd">
<svg version="1.1" id="图层_1" xmlns="http://www.w3.org/2000/svg" xmlns:xlink="http://www.w3.org/1999/xlink" x="0px" y="0px"
	 viewBox="0 0 286.5 85" enable-background="new 0 0 286.5 85" xml:space="preserve">
<g>
	<g>
		<path fill="#679A18" d="M90.1,26v-5.1h5.1V26H90.1z M90.1,59.2V31.1h5.1v28.1H90.1z"/>
		<path fill="#679A18" d="M117.3,55.6c-3.1,2.8-6,4.2-8.8,4.2c-2.3,0-4.3-0.7-5.8-2.2c-1.5-1.5-2.3-3.3-2.3-5.5
			c0-3.1,1.3-5.4,3.9-7.1c2.6-1.6,6.3-2.5,11.1-2.5h1.2v-3.4c0-3.3-1.7-4.9-5.1-4.9c-2.6,0-5.5,0.8-8.6,2.5v-4.2
			c3.4-1.4,6.7-2.1,9.7-2.1c3.1,0,5.4,0.7,6.9,2.1c1.5,1.4,2.2,3.6,2.2,6.6v12.7c0,2.9,0.9,4.4,2.7,4.4c0.2,0,0.6,0,1-0.1l0.4,2.8
			c-1.2,0.6-2.4,0.8-3.8,0.8C119.5,59.8,117.9,58.4,117.3,55.6z M116.5,52.9v-7.3l-1.6-0.1c-2.8,0-5.1,0.5-6.8,1.6
			c-1.7,1.1-2.6,2.5-2.6,4.2c0,1.2,0.4,2.3,1.3,3.1c0.9,0.8,1.9,1.3,3.2,1.3C112,55.7,114.2,54.7,116.5,52.9z"/>
		<path fill="#679A18" d="M129.4,59.2V18.3h5.1v40.9H129.4z"/>
		<path fill="#679A18" d="M142.8,59.2V20.9h7.5l10.6,29.6l10.9-29.6h6.7v38.3h-5.1V28.1L163,56.6h-5.2L147.5,28v31.2H142.8z"/>
		<path fill="#679A18" d="M198.4,55.6c-3.1,2.8-6,4.2-8.8,4.2c-2.3,0-4.3-0.7-5.8-2.2c-1.5-1.5-2.3-3.3-2.3-5.5
			c0-3.1,1.3-5.4,3.9-7.1c2.6-1.6,6.3-2.5,11.1-2.5h1.2v-3.4c0-3.3-1.7-4.9-5.1-4.9c-2.6,0-5.5,0.8-8.6,2.5v-4.2
			c3.4-1.4,6.7-2.1,9.7-2.1c3.1,0,5.4,0.7,6.9,2.1c1.5,1.4,2.2,3.6,2.2,6.6v12.7c0,2.9,0.9,4.4,2.7,4.4c0.2,0,0.6,0,1-0.1l0.4,2.8
			c-1.2,0.6-2.4,0.8-3.8,0.8C200.6,59.8,199.1,58.4,198.4,55.6z M197.7,52.9v-7.3l-1.6-0.1c-2.8,0-5.1,0.5-6.8,1.6
			c-1.7,1.1-2.6,2.5-2.6,4.2c0,1.2,0.4,2.3,1.3,3.1c0.9,0.8,1.9,1.3,3.2,1.3C193.2,55.7,195.4,54.7,197.7,52.9z"/>
		<path fill="#679A18" d="M207.5,58.2v-4.7c3.3,1.7,6.2,2.5,8.7,2.5c1.5,0,2.7-0.4,3.6-1.2c1-0.8,1.4-1.8,1.4-3
			c0-1.7-1.4-3.2-4.1-4.3l-3-1.3c-4.4-1.8-6.6-4.5-6.6-7.9c0-2.5,0.9-4.4,2.6-5.8c1.7-1.4,4.1-2.1,7.1-2.1c1.6,0,3.5,0.2,5.8,0.6
			l1.1,0.2v4.2c-2.8-0.8-5.1-1.3-6.8-1.3c-1.5,0-2.7,0.3-3.6,1c-0.9,0.6-1.3,1.5-1.3,2.6c0,1.5,1.2,2.8,3.7,3.9l2.5,1
			c2.8,1.2,4.7,2.4,5.9,3.7c1.2,1.3,1.7,2.9,1.7,4.9c0,2.5-1,4.5-2.9,6.1c-2,1.6-4.4,2.4-7.5,2.4C213.7,59.8,210.8,59.3,207.5,58.2z
			"/>
		<path fill="#679A18" d="M243.4,59.2c-1.6,0.4-2.9,0.6-4.1,0.6c-2.6,0-4.6-0.7-6.1-2.2c-1.4-1.5-2.2-3.5-2.2-6.2V34.9h-3.5v-3.8
			h3.5V26l5.1-0.5v5.6h7.3v3.8h-7.3v15.6c0,3.7,1.6,5.5,4.8,5.5c0.7,0,1.5-0.1,2.5-0.3V59.2z"/>
		<path fill="#679A18" d="M266.7,58.3c-3.4,1-6.3,1.6-8.8,1.6c-4.2,0-7.5-1.4-10.1-4.1c-2.6-2.8-3.9-6.3-3.9-10.7
			c0-4.3,1.2-7.7,3.5-10.5c2.3-2.7,5.2-4.1,8.8-4.1c3.4,0,6,1.2,7.9,3.6c1.9,2.4,2.8,5.9,2.8,10.3l0,1.6H249c0.7,6.7,4,10,9.8,10
			c2.1,0,4.7-0.6,7.8-1.7V58.3z M249.3,42.1h12.4c0-5.2-2-7.8-5.8-7.8C251.9,34.3,249.7,36.9,249.3,42.1z"/>
		<path fill="#679A18" d="M270.9,59.2V31.1h5.1v5.3c2-3.9,5-5.9,8.8-5.9c0.5,0,1.1,0,1.6,0.1v4.8c-0.9-0.3-1.7-0.4-2.3-0.4
			c-3.2,0-5.9,1.9-8.1,5.7v18.5H270.9z"/>
	</g>
	<g>
		<path fill="#727171" d="M194.7,74.7c0-0.5,0.1-1.3,0.1-2v-9.4h1.4v4.9h0c0.5-0.9,1.4-1.4,2.7-1.4c2,0,3.4,1.6,3.4,4
			c0,2.8-1.8,4.1-3.6,4.1c-1.2,0-2.1-0.4-2.7-1.5h0l-0.1,1.3H194.7z M196.2,71.6c0,0.2,0,0.4,0.1,0.5c0.3,1,1.1,1.6,2.2,1.6
			c1.5,0,2.4-1.2,2.4-3c0-1.6-0.8-2.9-2.4-2.9c-1,0-1.9,0.7-2.2,1.7c0,0.2-0.1,0.4-0.1,0.6V71.6z"/>
		<path fill="#727171" d="M204.2,67l1.7,4.6c0.2,0.5,0.4,1.1,0.5,1.6h0c0.1-0.5,0.3-1.1,0.5-1.6l1.6-4.5h1.5l-2.2,5.5
			c-1,2.7-1.7,4-2.7,4.8c-0.7,0.6-1.4,0.8-1.8,0.9l-0.4-1.2c0.4-0.1,0.8-0.3,1.3-0.7c0.4-0.3,0.9-0.8,1.2-1.6
			c0.1-0.1,0.1-0.3,0.1-0.3s0-0.2-0.1-0.4l-3-7.1H204.2z"/>
		<path fill="#727171" d="M216,71.3l-1.2,3.4h-1.5l3.8-10.8h1.7l3.8,10.8h-1.5l-1.2-3.4H216z M219.6,70.2l-1.1-3.1
			c-0.2-0.7-0.4-1.3-0.6-2h0c-0.2,0.6-0.3,1.3-0.6,2l-1.1,3.1H219.6z"/>
		<path fill="#727171" d="M230.7,63.4v9.4c0,0.7,0,1.5,0.1,2h-1.3l-0.1-1.3h0c-0.4,0.9-1.4,1.5-2.7,1.5c-1.9,0-3.4-1.6-3.4-3.9
			c0-2.6,1.6-4.2,3.6-4.2c1.2,0,2,0.6,2.4,1.2h0v-4.6H230.7z M229.2,70.1c0-0.2,0-0.4-0.1-0.6c-0.2-0.9-1-1.6-2.1-1.6
			c-1.5,0-2.4,1.3-2.4,3c0,1.6,0.8,2.9,2.4,2.9c1,0,1.9-0.6,2.1-1.7c0-0.2,0.1-0.4,0.1-0.6V70.1z"/>
		<path fill="#727171" d="M242.1,70c-0.1-1.5-0.2-3.3-0.2-4.7h0c-0.4,1.3-0.8,2.6-1.4,4.1l-2,5.2h-1.1l-1.8-5.1
			c-0.5-1.5-1-2.9-1.3-4.2h0c0,1.3-0.1,3.2-0.2,4.8l-0.3,4.6h-1.4l0.8-10.8h1.8l1.9,5.2c0.5,1.3,0.8,2.5,1.1,3.6h0
			c0.3-1.1,0.7-2.3,1.2-3.6l2-5.2h1.8l0.7,10.8h-1.4L242.1,70z"/>
		<path fill="#727171" d="M249.9,74.7l-0.1-1h0c-0.4,0.6-1.3,1.2-2.4,1.2c-1.6,0-2.4-1.1-2.4-2.2c0-1.9,1.7-2.9,4.8-2.9v-0.2
			c0-0.6-0.2-1.8-1.8-1.8c-0.7,0-1.5,0.2-2.1,0.6l-0.3-0.9c0.7-0.4,1.6-0.7,2.6-0.7c2.4,0,3,1.6,3,3.2v2.9c0,0.7,0,1.3,0.1,1.9
			H249.9z M249.7,70.8c-1.6,0-3.4,0.2-3.4,1.7c0,0.9,0.6,1.3,1.4,1.3c1,0,1.7-0.6,1.9-1.3c0-0.1,0.1-0.3,0.1-0.4V70.8z"/>
		<path fill="#727171" d="M252.9,73.3c0.4,0.3,1.2,0.6,1.9,0.6c1.1,0,1.5-0.5,1.5-1.2c0-0.7-0.4-1-1.5-1.4c-1.4-0.5-2.1-1.3-2.1-2.2
			c0-1.2,1-2.3,2.8-2.3c0.8,0,1.5,0.2,2,0.5l-0.4,1c-0.3-0.2-0.9-0.4-1.6-0.4c-0.9,0-1.3,0.5-1.3,1.1c0,0.6,0.5,0.9,1.5,1.3
			c1.4,0.5,2.1,1.2,2.1,2.3c0,1.4-1.1,2.3-3,2.3c-0.9,0-1.7-0.2-2.2-0.5L252.9,73.3z"/>
		<path fill="#727171" d="M260.9,64.7V67h2.1V68h-2.1v4.2c0,1,0.3,1.5,1.1,1.5c0.4,0,0.7,0,0.8-0.1l0.1,1.1
			c-0.3,0.1-0.7,0.2-1.3,0.2c-0.7,0-1.2-0.2-1.6-0.6c-0.4-0.4-0.6-1.1-0.6-2V68h-1.2V67h1.2v-1.9L260.9,64.7z"/>
		<path fill="#727171" d="M265,71.1c0,1.9,1.3,2.7,2.7,2.7c1,0,1.7-0.2,2.2-0.4l0.2,1c-0.5,0.2-1.4,0.5-2.7,0.5
			c-2.5,0-3.9-1.6-3.9-3.9c0-2.3,1.4-4.2,3.7-4.2c2.6,0,3.3,2.2,3.3,3.7c0,0.3,0,0.5,0,0.7H265z M269.3,70.1c0-0.9-0.4-2.3-2-2.3
			c-1.5,0-2.1,1.3-2.2,2.3H269.3z"/>
		<path fill="#727171" d="M272.1,69.4c0-0.9,0-1.7-0.1-2.4h1.3l0,1.5h0.1c0.4-1,1.2-1.7,2.2-1.7c0.2,0,0.3,0,0.4,0v1.3
			c-0.1,0-0.3,0-0.5,0c-1,0-1.7,0.8-1.9,1.8c0,0.2-0.1,0.4-0.1,0.7v4.1h-1.4V69.4z"/>
	</g>
	<g>
		<g>
			<g>
				<path fill="#73AB1F" d="M8.5,0C3.8,0,0,3.8,0,8.5V85h76.5c4.7,0,8.5-3.8,8.5-8.5V0H8.5z"/>
			</g>
		</g>
		<polygon fill="#679A18" points="45,56 11,75.7 57.6,18.5 85,51.1 57.6,0 0,85 79,50.7 36.5,50.7 		"/>
	</g>
	<g>
		<path fill="#FFFFFF" d="M5.6,58.5v-5.4c4.3,2,7.9,3,10.7,3c2.1,0,3.8-0.6,5.1-1.7c1.3-1.1,2-2.6,2-4.4c0-1.5-0.4-2.8-1.3-3.8
			c-0.9-1.1-2.4-2.2-4.7-3.5l-2.6-1.5c-3.3-1.9-5.6-3.6-6.9-5.3c-1.3-1.6-2-3.6-2-5.7c0-3,1.1-5.4,3.2-7.3c2.1-1.9,4.9-2.9,8.2-2.9
			c3,0,6.1,0.5,9.3,1.5v5c-4-1.6-7-2.4-9-2.4c-1.9,0-3.4,0.5-4.7,1.5c-1.2,1-1.8,2.3-1.8,3.8c0,1.3,0.4,2.4,1.3,3.4
			c0.9,1,2.5,2.2,4.9,3.5l2.7,1.6c3.3,1.9,5.6,3.7,6.9,5.3c1.3,1.7,2,3.7,2,6c0,3.3-1.2,6-3.7,8c-2.4,2-5.7,3-9.8,3
			C12.9,60.2,9.6,59.6,5.6,58.5z"/>
		<path fill="#FFFFFF" d="M43.8,59.8c-4.1,0-7.4-1.3-9.8-4c-2.4-2.6-3.6-6.2-3.6-10.7c0-4.5,1.2-8.1,3.6-10.7
			c2.4-2.6,5.7-3.9,9.8-3.9c4.1,0,7.4,1.3,9.8,3.9c2.4,2.6,3.6,6.2,3.6,10.7c0,4.5-1.2,8.1-3.6,10.7C51.2,58.5,47.9,59.8,43.8,59.8z
			 M43.8,56c2.5,0,4.5-0.9,5.9-2.8c1.4-1.9,2.1-4.6,2.1-8c0-3.4-0.7-6.1-2.1-8c-1.4-1.9-3.4-2.8-5.9-2.8c-2.5,0-4.5,0.9-5.9,2.8
			c-1.4,1.9-2.1,4.6-2.1,8c0,3.5,0.7,6.1,2.1,8C39.3,55.1,41.3,56,43.8,56z"/>
		<path fill="#FFFFFF" d="M80.7,58.3c-3.3,1-6.1,1.5-8.5,1.5c-3.8,0-6.9-1.4-9.4-4.2C60.2,52.8,59,49.3,59,45
			c0-4.6,1.2-8.1,3.7-10.7c2.5-2.6,5.9-3.8,10.4-3.8c2.2,0,4.6,0.3,7.3,0.9v4.3c-2.9-0.8-5.2-1.3-7-1.3c-2.6,0-4.7,1-6.3,2.9
			c-1.6,2-2.4,4.6-2.4,7.8c0,3.2,0.8,5.7,2.4,7.7c1.6,2,3.7,2.9,6.4,2.9c2.3,0,4.7-0.6,7.2-1.8V58.3z"/>
	</g>
</g>
</svg>
