<?xml version="1.0" encoding="utf-8"?>
<!-- Generator: Adobe Illustrator 18.0.0, SVG Export Plug-In . SVG Version: 6.00 Build 0)  -->
<!DOCTYPE svg PUBLIC "-//W3C//DTD SVG 1.1//EN" "http://www.w3.org/Graphics/SVG/1.1/DTD/svg11.dtd">
<svg version="1.1" id="图层_1" xmlns="http://www.w3.org/2000/svg" xmlns:xlink="http://www.w3.org/1999/xlink" x="0px" y="0px"
	 viewBox="0 0 85 85" enable-background="new 0 0 85 85" xml:space="preserve">
<g id="Page-1">
	<g id="SocialMaster">
		<g id="Group">
			<g id="Shape">
				<path fill="#73AB1F" d="M85,85V0H0l0,0c0,1.1,0,3.8,0,8.5V85"/>
				<polygon fill="#679A18" points="45,56 11,75.7 57.6,18.5 85,51.1 57.6,0 0,85 79,50.7 36.5,50.7 				"/>
			</g>
			<g id="Shape_1_" transform="translate(5.000000, 20.000000)">
				<path fill="#FFFFFF" d="M0.6,38.5v-5.4c4.3,2,7.9,3,10.7,3c2.1,0,3.8-0.6,5.1-1.7c1.3-1.1,2-2.6,2-4.4c0-1.5-0.4-2.8-1.3-3.8
					c-0.9-1.1-2.4-2.2-4.7-3.5l-2.6-1.5c-3.3-1.9-5.6-3.6-6.9-5.3c-1.3-1.6-2-3.6-2-5.7c0-3,1.1-5.4,3.2-7.3S9,0,12.3,0
					c3,0,6.1,0.5,9.3,1.5v5c-4-1.6-7-2.4-9-2.4c-1.9,0-3.4,0.5-4.7,1.5c-1.2,1-1.8,2.3-1.8,3.8c0,1.3,0.4,2.4,1.3,3.4
					s2.5,2.2,4.9,3.5l2.7,1.6c3.3,1.9,5.6,3.7,6.9,5.3c1.3,1.7,2,3.7,2,6c0,3.3-1.2,6-3.7,8c-2.4,2-5.7,3-9.8,3
					C7.9,40.2,4.6,39.6,0.6,38.5L0.6,38.5z"/>
				<path fill="#FFFFFF" d="M38.8,39.8c-4.1,0-7.4-1.3-9.8-4c-2.4-2.6-3.6-6.2-3.6-10.7S26.6,17,29,14.4s5.7-3.9,9.8-3.9
					s7.4,1.3,9.8,3.9c2.4,2.6,3.6,6.2,3.6,10.7s-1.2,8.1-3.6,10.7C46.2,38.5,42.9,39.8,38.8,39.8L38.8,39.8z M38.8,36
					c2.5,0,4.5-0.9,5.9-2.8c1.4-1.9,2.1-4.6,2.1-8s-0.7-6.1-2.1-8c-1.4-1.9-3.4-2.8-5.9-2.8s-4.5,0.9-5.9,2.8
					c-1.4,1.9-2.1,4.6-2.1,8c0,3.5,0.7,6.1,2.1,8C34.3,35.1,36.3,36,38.8,36L38.8,36z"/>
				<path fill="#FFFFFF" d="M75.7,38.3c-3.3,1-6.1,1.5-8.5,1.5c-3.8,0-6.9-1.4-9.4-4.2C55.2,32.8,54,29.3,54,25
					c0-4.6,1.2-8.1,3.7-10.7s5.9-3.8,10.4-3.8c2.2,0,4.6,0.3,7.3,0.9v4.3c-2.9-0.8-5.2-1.3-7-1.3c-2.6,0-4.7,1-6.3,2.9
					c-1.6,2-2.4,4.6-2.4,7.8s0.8,5.7,2.4,7.7c1.6,2,3.7,2.9,6.4,2.9c2.3,0,4.7-0.6,7.2-1.8V38.3L75.7,38.3z"/>
			</g>
		</g>
	</g>
</g>
</svg>
