<?xml version="1.0" encoding="UTF-8"?>
<svg width="20px" height="16px" viewBox="0 0 20 16" version="1.1" xmlns="http://www.w3.org/2000/svg" xmlns:xlink="http://www.w3.org/1999/xlink">
    <!-- Generator: Sketch 41.2 (35397) - http://www.bohemiancoding.com/sketch -->
    <title>阅读曝光</title>
    <desc>Created with Sketch.</desc>
    <defs></defs>
    <g id="Page-1" stroke="none" stroke-width="1" fill="none" fill-rule="evenodd">
        <g id="阅读曝光" fill="#999898">
            <g id="Group">
                <path d="M10,4.80542496 C11.4883372,4.80542496 12.7213739,6.25227948 12.7213739,8 C12.7213739,9.74772052 11.4883372,11.194575 10,11.194575 C8.51166276,11.194575 7.27862607,9.74713402 7.27862607,8 C7.27862607,6.25286598 8.51166276,4.80542496 10,4.80542496 Z M10,13.3411042 C12.5090398,13.3411042 14.5499454,10.9453196 14.5499454,8 C14.5499454,5.05468041 12.5090398,2.65889575 10,2.65889575 C7.49096019,2.65889575 5.45005464,5.05468041 5.45005464,8 C5.45005464,10.9453196 7.49096019,13.3411042 10,13.3411042 Z M10,0.0138556701 C14.5499454,0.0138556701 18.4184231,3.30813287 19.9921936,8 C18.4194223,12.6912806 14.5499454,15.9861443 10,15.9861443 C5.45005464,15.9861443 1.58157689,12.6912806 0.00780639344,8 C1.58057768,3.30871937 5.45005464,0.0138556701 10,0.0138556701 Z" id="Shape"></path>
            </g>
        </g>
    </g>
</svg>