<?xml version="1.0" encoding="UTF-8"?>
<svg width="15px" height="14px" viewBox="0 0 15 14" version="1.1" xmlns="http://www.w3.org/2000/svg" xmlns:xlink="http://www.w3.org/1999/xlink">
    <!-- Generator: Sketch 40.1 (33804) - http://www.bohemiancoding.com/sketch -->
    <title>weixin-logo</title>
    <desc>Created with Sketch.</desc>
    <defs></defs>
    <g id="Page-1" stroke="none" stroke-width="1" fill="none" fill-rule="evenodd">
        <g id="weixin-logo" fill="#44B549">
            <g id="Capa_1">
                <g id="Group">
                    <path d="M14.7201563,9.5184375 C14.7201563,7.36359375 12.6632813,5.6184375 10.1264063,5.6184375 C7.58859375,5.6184375 5.53171875,7.36453125 5.53171875,9.5184375 C5.53171875,11.6732813 7.58859375,13.419375 10.1264063,13.419375 C10.92375,13.419375 11.6742188,13.2464062 12.328125,12.9417187 L14.1389063,13.725 L13.929375,11.7051562 C14.4290625,11.0821875 14.7201563,10.3284375 14.7201563,9.5184375 L14.7201563,9.5184375 Z M8.57859375,8.461875 C8.2171875,8.461875 7.9246875,8.16890625 7.9246875,7.80796875 C7.9246875,7.44703125 8.21671875,7.1540625 8.57859375,7.1540625 C8.93953125,7.1540625 9.2315625,7.44703125 9.2315625,7.80796875 C9.2315625,8.16890625 8.93859375,8.461875 8.57859375,8.461875 L8.57859375,8.461875 Z M11.6742188,8.461875 C11.31375,8.461875 11.0207813,8.16890625 11.0207813,7.80796875 C11.0207813,7.44703125 11.31375,7.1540625 11.6742188,7.1540625 C12.035625,7.1540625 12.3285938,7.44703125 12.3285938,7.80796875 C12.3285938,8.16890625 12.035625,8.461875 11.6742188,8.461875 L11.6742188,8.461875 Z" id="Shape"></path>
                    <path d="M10.126875,5.10234375 C10.8370313,5.10234375 11.5129688,5.22890625 12.1289062,5.45625 C12.133125,5.37421875 12.1429688,5.29453125 12.1429688,5.21203125 C12.1429688,2.36484375 9.42375,0.05765625 6.07125,0.05765625 C2.71828125,0.05765625 0,2.364375 0,5.21203125 C0,6.28265625 0.3853125,7.27828125 1.04484375,8.1028125 L0.7678125,10.771875 L3.1603125,9.73453125 C3.7528125,10.0110937 4.40765625,10.1967187 5.0990625,10.291875 C5.04703125,10.0396875 5.01515625,9.78234375 5.01515625,9.5184375 C5.015625,7.08328125 7.30828125,5.10234375 10.126875,5.10234375 L10.126875,5.10234375 Z M8.11734375,2.08921875 C8.5940625,2.08921875 8.97984375,2.47546875 8.97984375,2.95171875 C8.97984375,3.42890625 8.5940625,3.81515625 8.11734375,3.81515625 C7.6396875,3.81515625 7.254375,3.42890625 7.254375,2.95171875 C7.254375,2.47546875 7.64109375,2.08921875 8.11734375,2.08921875 L8.11734375,2.08921875 Z M4.0246875,3.81515625 C3.54796875,3.81515625 3.1621875,3.42890625 3.1621875,2.95171875 C3.1621875,2.47546875 3.54796875,2.08921875 4.0246875,2.08921875 C4.501875,2.08921875 4.88765625,2.47546875 4.88765625,2.95171875 C4.88765625,3.42796875 4.50140625,3.81515625 4.0246875,3.81515625 L4.0246875,3.81515625 Z" id="Shape"></path>
                </g>
            </g>
        </g>
    </g>
</svg>