<?xml version="1.0" encoding="UTF-8"?>
<svg width="15px" height="13px" viewBox="0 0 15 13" version="1.1" xmlns="http://www.w3.org/2000/svg" xmlns:xlink="http://www.w3.org/1999/xlink">
    <!-- Generator: Sketch 40.1 (33804) - http://www.bohemiancoding.com/sketch -->
    <title>weibo-website-logo</title>
    <desc>Created with Sketch.</desc>
    <defs></defs>
    <g id="Page-1" stroke="none" stroke-width="1" fill="none" fill-rule="evenodd">
        <g id="weibo-website-logo">
            <g id="Capa_1">
                <g id="Group">
                    <path d="M9.38912109,10.0920117 C8.57220703,10.7527441 7.54195312,11.1472559 6.29850586,11.2754883 C5.4843457,11.3535938 4.71896484,11.2950293 4.00248047,11.0998535 C3.2859668,10.9045313 2.70457031,10.600752 2.25852539,10.1881055 C1.81242187,9.7753125 1.56427734,9.30128906 1.5140918,8.76591797 C1.43595703,7.95181641 1.80544922,7.21441406 2.62236328,6.55362305 C3.43927734,5.89268555 4.46953125,5.49820313 5.71300781,5.3699707 C6.52716797,5.29180664 7.29249023,5.35045898 8.00885742,5.54563477 C8.7253125,5.74078125 9.30682617,6.04467773 9.75295898,6.45729492 C10.1991211,6.87005859 10.4471484,7.34408203 10.4972754,7.87936523 C10.5752637,8.69361328 10.2060352,9.43101563 9.38912109,10.0920117 L9.38912109,10.0920117 Z" id="Path" fill="#FFFFFF"></path>
                    <path d="M12.1198535,6.25643555 C11.8635937,6.0946582 11.57625,5.96361328 11.2584375,5.86327148 C11.1914648,5.84085938 11.1439746,5.82421875 11.116084,5.81302734 C11.0882227,5.80186523 11.0546191,5.78100586 11.0157422,5.75030273 C10.9766309,5.71957031 10.9639746,5.68467773 10.978125,5.64568359 C10.9921582,5.60666016 11.0045801,5.5509375 11.0157422,5.47845703 C11.2664941,4.83720703 11.2664941,4.34091797 11.0157422,3.98961914 C10.759043,3.64948242 10.3326855,3.47935547 9.73582031,3.47935547 C9.13918945,3.47935547 8.45332031,3.64391602 7.67833008,3.97286133 L7.62799805,3.98961914 C7.59474609,4.00078125 7.55704102,4.01041992 7.51529297,4.01885742 C7.47336914,4.02729492 7.43291016,4.02861328 7.39391602,4.02307617 C7.35500977,4.01756836 7.32708984,3.99805664 7.31033203,3.96457031 C7.29357422,3.93108398 7.29644531,3.87533203 7.31874023,3.79725586 C7.56955078,2.98866211 7.51388672,2.40600586 7.15136719,2.04905273 C6.7387793,1.63643555 6.0515332,1.61692383 5.08954102,1.99054688 C4.1278125,2.36425781 3.17569336,3.02220703 2.23321289,3.9646875 C1.51948242,4.67841797 0.968789063,5.39777344 0.58125,6.12269531 C0.193681641,6.84773438 0,7.53061523 0,8.17204102 C0,8.77420898 0.181230469,9.33043945 0.543603516,9.84076172 C0.906152344,10.351084 1.38421875,10.7720508 1.9781543,11.1038086 C2.57194336,11.4354492 3.24254883,11.6949316 3.98973633,11.8817285 C4.73695312,12.0684082 5.50374023,12.1618652 6.28998047,12.1618652 C7.07625,12.1618652 7.83041016,12.0755273 8.55246094,11.9026758 C9.27451172,11.7297363 9.90474609,11.4984375 10.4427246,11.2083984 C10.9809375,10.9185352 11.4507422,10.5909082 11.852168,10.2255469 C12.2537988,9.86030273 12.5575781,9.47853516 12.7640039,9.07959961 C12.9703418,8.68098633 13.0736133,8.29195313 13.0736133,7.91291016 C13.0736133,7.55607422 12.9789844,7.23105469 12.7891699,6.93837891 C12.599707,6.64532227 12.3765234,6.418125 12.1198535,6.25643555 L12.1198535,6.25643555 Z M9.38912109,10.0920117 C8.57220703,10.7527441 7.54195312,11.1472559 6.29850586,11.2754883 C5.4843457,11.3535938 4.71896484,11.2950293 4.00248047,11.0998535 C3.2859668,10.9045313 2.70457031,10.600752 2.25852539,10.1881055 C1.81242187,9.7753125 1.56427734,9.30128906 1.5140918,8.76591797 C1.43595703,7.95181641 1.80544922,7.21441406 2.62236328,6.55362305 C3.43927734,5.89268555 4.46953125,5.49820313 5.71300781,5.3699707 C6.52716797,5.29180664 7.29249023,5.35045898 8.00885742,5.54563477 C8.7253125,5.74078125 9.30682617,6.04467773 9.75295898,6.45729492 C10.1991211,6.87005859 10.4471484,7.34408203 10.4972754,7.87936523 C10.5752637,8.69361328 10.2060352,9.43101563 9.38912109,10.0920117 L9.38912109,10.0920117 Z" id="Shape" fill="#E90F24"></path>
                    <path d="M6.54108398,6.62478516 C5.95004883,6.47416992 5.36311523,6.52731445 4.78040039,6.7837793 C4.19762695,7.04024414 3.7753125,7.42766602 3.51319336,7.94639648 C3.25110352,8.4759668 3.23291016,8.99882813 3.45878906,9.51462891 C3.68466797,10.030459 4.09584961,10.3831055 4.69253906,10.5728613 C5.31146484,10.7734863 5.93610352,10.7400879 6.56616211,10.4722852 C7.1962793,10.2045996 7.63672852,9.78632813 7.88789062,9.21767578 C8.13864258,8.65992188 8.13169922,8.12885742 7.86682617,7.62413086 C7.60180664,7.11966797 7.16000977,6.78650391 6.54108398,6.62478516 L6.54108398,6.62478516 Z M5.64606445,9.33486328 C5.52336914,9.52435547 5.34914062,9.65689453 5.12317383,9.73209961 C4.89735352,9.80748047 4.68949219,9.80047852 4.5,9.71124023 C4.31044922,9.62200195 4.19056641,9.48123047 4.14038086,9.28875 C4.09016602,9.0965332 4.12640625,8.90566406 4.24907227,8.7159668 C4.36611328,8.53180664 4.53345703,8.40366211 4.75089844,8.33126953 C4.96845703,8.25875977 5.17195312,8.26148438 5.3615625,8.33958984 C5.55673828,8.42311523 5.68230469,8.56265625 5.73805664,8.75774414 C5.7937793,8.95289063 5.76316406,9.14516602 5.64606445,9.33486328 L5.64606445,9.33486328 Z M6.43224609,8.32253906 C6.39325195,8.39513672 6.3318457,8.44675781 6.24826172,8.47743164 C6.16461914,8.50813477 6.08370117,8.50942383 6.00568359,8.48165039 C5.83845703,8.40345703 5.8022168,8.2781543 5.89696289,8.10527344 C5.93598633,8.03267578 5.99592773,7.98117188 6.07672852,7.95038086 C6.1575293,7.91970703 6.23698242,7.91838867 6.31508789,7.9462793 C6.38756836,7.97402344 6.43634766,8.02576172 6.46151367,8.10105469 C6.4865918,8.17617188 6.47689453,8.25026367 6.43224609,8.32253906 L6.43224609,8.32253906 Z" id="Shape" fill="#181616"></path>
                    <path d="M11.952627,4.65480469 C12.014209,4.7747168 12.1088379,4.85692383 12.2371582,4.90157227 C12.3655078,4.9405957 12.4894043,4.92949219 12.6093164,4.86808594 C12.7292285,4.80682617 12.8115234,4.71202148 12.8561719,4.58370117 C12.9620215,4.27151367 12.9802734,3.94379883 12.9103125,3.6009375 C12.8407324,3.25804687 12.6887695,2.95546875 12.4547461,2.69337891 C12.2205469,2.43125977 11.9387109,2.24862305 11.6098535,2.14541016 C11.2808203,2.04225586 10.9490332,2.02696289 10.6145801,2.09944336 C10.4805469,2.12736328 10.3774512,2.19849609 10.3048828,2.3127832 C10.2324902,2.42704102 10.2102539,2.55114258 10.2382324,2.68494141 C10.260498,2.81879883 10.3300781,2.92195312 10.4470605,2.99443359 C10.5642773,3.06691406 10.6896973,3.08920898 10.8236426,3.06140625 C11.1750586,2.98889648 11.473125,3.08651367 11.7186621,3.35414062 C11.9641113,3.62173828 12.0308496,3.93123047 11.9194043,4.28258789 C11.8800293,4.41082031 11.8913672,4.53492188 11.952627,4.65480469 L11.952627,4.65480469 Z" id="Shape" fill="#FF9A1F"></path>
                    <path d="M14.9096777,3.19095703 C14.7673242,2.48563477 14.4537891,1.86524414 13.9686328,1.32996094 C13.483418,0.789140625 12.9035156,0.414111328 12.2285449,0.204873047 C11.5538965,-0.00427734375 10.8737695,-0.0362988281 10.1876953,0.108662109 C10.0314844,0.142148437 9.91016602,0.224355469 9.82374023,0.355458984 C9.73731445,0.486591797 9.71083008,0.630117187 9.74443359,0.786269531 C9.77783203,0.942421875 9.86132812,1.06368164 9.99536133,1.15010742 C10.1290137,1.2365332 10.2740918,1.26304687 10.4300977,1.22956055 C10.9153418,1.12924805 11.3977734,1.15297852 11.8772461,1.30069336 C12.3568652,1.4484668 12.769541,1.7146582 13.115332,2.09944336 C13.4609473,2.47866211 13.6842187,2.91911133 13.7845898,3.42105469 C13.8850488,3.92285156 13.8571875,4.40244141 13.7009766,4.85967773 C13.6564453,5.01032227 13.6703027,5.1552832 13.7429004,5.29470703 C13.815293,5.43410156 13.9267676,5.52884766 14.0773535,5.5790918 C14.2279687,5.62916016 14.3729297,5.61808594 14.5122949,5.54560547 C14.651748,5.473125 14.746582,5.36162109 14.7968262,5.21103516 C15.0142383,4.56975586 15.0518262,3.89639648 14.9096777,3.19095703 L14.9096777,3.19095703 Z" id="Shape" fill="#FF9A1F"></path>
                </g>
            </g>
        </g>
    </g>
</svg>