<?xml version="1.0" standalone="no"?><!DOCTYPE svg PUBLIC "-//W3C//DTD SVG 1.1//EN" "http://www.w3.org/Graphics/SVG/1.1/DTD/svg11.dtd"><svg width="200" height="200" viewBox="0 0 200 200" version="1.1" xmlns="http://www.w3.org/2000/svg" xmlns:xlink="http://www.w3.org/1999/xlink"><defs><style type="text/css"><![CDATA[
@font-face { font-family: ifont; src: url("//at.alicdn.com/t/font_1442373896_4754455.eot?#iefix") format("embedded-opentype"), url("//at.alicdn.com/t/font_1442373896_4754455.woff") format("woff"), url("//at.alicdn.com/t/font_1442373896_4754455.ttf") format("truetype"), url("//at.alicdn.com/t/font_1442373896_4754455.svg#ifont") format("svg"); }

]]></style></defs><g class="transform-group"><g transform="scale(0.1953125, 0.1953125)"><path d="M512 180.672C317.568 180.672 0 412.608 0 512c0 99.392 317.568 331.328 512 331.328 194.432 0 512-231.872 512-331.328C1024 412.608 706.432 180.672 512 180.672zM512 743.872c-123.712 0-224-103.808-224-231.936 0-128.064 100.288-231.872 224-231.872 123.712 0 224 103.808 224 231.872C736 640.064 635.712 743.872 512 743.872zM512 346.368C423.616 346.368 352 420.544 352 512c0 91.52 71.616 165.632 160 165.632S672 603.456 672 512C672 420.544 600.384 346.368 512 346.368z" fill="#dddddd"></path></g></g></svg>