<?xml version="1.0" standalone="no"?><!DOCTYPE svg PUBLIC "-//W3C//DTD SVG 1.1//EN" "http://www.w3.org/Graphics/SVG/1.1/DTD/svg11.dtd"><svg width="200" height="200" viewBox="0 0 200 200" version="1.1" xmlns="http://www.w3.org/2000/svg" xmlns:xlink="http://www.w3.org/1999/xlink"><defs><style type="text/css"><![CDATA[
@font-face { font-family: ifont; src: url(http://at.alicdn.com/t/font_1442373896_4754455.eot?#iefix) format(embedded-opentype), url(http://at.alicdn.com/t/font_1442373896_4754455.woff) format(woff), url(http://at.alicdn.com/t/font_1442373896_4754455.ttf) format(truetype), url(http://at.alicdn.com/t/font_1442373896_4754455.svg#ifont) format(svg); }

]]></style></defs><g class="transform-group"><g transform="scale(0.1953125, 0.1953125)"><path d="M935.957333 342.232l-16.46-22.349333c-8.346667-11.322667-17.54-35.566667-18.806667-49.596l-2.506667-27.642667c-3.086667-34.22-28.106667-70.493333-59.04-85.54l-24.96-12.14c-12.646667-6.149333-32.06-23.342667-39.706667-35.176l-15.06-23.316c-18.64-28.862667-57.646667-49.356-92.033333-48.3l-27.746667 0.849333c-14.053333 0.429333-39.233333-5.769333-51.5-12.696l-24.173333-13.646667c-29.92-16.893333-73.98-16.913333-103.933333 0l-24.173333 13.646667c-12.246667 6.913333-37.422667 13.126667-51.506667 12.696l-27.742667-0.853333c-34.34-1.049333-73.362667 19.402667-92.029333 48.302667l-15.062667 23.313333c-7.629333 11.813333-27.036 29.013333-39.702667 35.176l-24.962667 12.14c-30.896 15.026667-55.946667 51.276-59.042667 85.54l-2.5 27.646667c-1.266667 14.002667-10.453333 38.253333-18.809333 49.593333l-16.46 22.353333c-20.373333 27.66-25.706667 71.4-12.526667 103.18l10.633333 25.64c5.386667 12.989333 8.522667 38.729333 6.393333 52.66l-4.189333 27.433333c-5.182667 33.966667 10.42 75.173333 36.86 97.186667l21.333333 17.76c10.802667 9 25.54 30.333333 30.129333 43.66l9.042667 26.24c1.622667 4.713333 3.702667 9.36 6.18 13.873333l-98.88 169.386667 143.169333 0 68.889333 104.746667 86.933333-148.92c21.546667 8.033333 46.026667 9.993333 66.733333 4.206667l26.74-7.466667c13.54-3.78 39.473333-3.786667 53.04 0l26.733333 7.466667c19.7 5.5 42.833333 4.006667 63.606667-3.093333l86.286667 147.806667 68.886667-104.746667 143.173333 0-96.973333-166.113333c3.306667-5.54 6.033333-11.286667 8.046667-17.153333l9.053333-26.233333c4.58-13.3 19.306667-34.646667 30.126667-43.66l21.333333-17.76c26.406667-21.986667 42.053333-63.173333 36.853333-97.186667l-4.18-27.433333c-2.126667-13.902667 0.993333-39.649333 6.393333-52.66l10.633333-25.64C961.650667 413.676 956.357333 369.932 935.957333 342.232zM511.998667 807.910667c-199.846667 0-361.852-162-361.852-361.849333 0-199.846667 162.006667-361.852 361.852-361.852 199.84 0 361.852 162.006667 361.852 361.852C873.850667 645.912 711.838667 807.910667 511.998667 807.910667zM511.998667 122.3c-178.809333 0-323.762667 144.953333-323.762667 323.762667 0 178.802667 144.953333 323.762667 323.762667 323.762667 178.806667 0 323.765333-144.96 323.765333-323.762667C835.764 267.252 690.805333 122.3 511.998667 122.3zM628.252 604.972l-111.34-59.146667-112.536 56.84 21.849333-124.173333-88.829333-89.466667 124.84-17.586667 57.629333-112.129333 55.313333 113.293333 124.46 20.166667-90.666667 87.609333L628.252 604.972z" fill="#272636"></path></g></g></svg>