<?xml version="1.0" standalone="no"?><!DOCTYPE svg PUBLIC "-//W3C//DTD SVG 1.1//EN" "http://www.w3.org/Graphics/SVG/1.1/DTD/svg11.dtd"><svg width="200" height="200" viewBox="0 0 200 200" version="1.1" xmlns="http://www.w3.org/2000/svg" xmlns:xlink="http://www.w3.org/1999/xlink"><defs><style type="text/css"><![CDATA[
@font-face { font-family: ifont; src: url(http://at.alicdn.com/t/font_1442373896_4754455.eot?#iefix) format(embedded-opentype), url(http://at.alicdn.com/t/font_1442373896_4754455.woff) format(woff), url(http://at.alicdn.com/t/font_1442373896_4754455.ttf) format(truetype), url(http://at.alicdn.com/t/font_1442373896_4754455.svg#ifont) format(svg); }

]]></style></defs><g class="transform-group"><g transform="scale(0.1953125, 0.1953125)"><path d="M959.689401 269.817001C959.553225 264.522367 959.553225 259.874358 959.553225 256.000726L797.83087 256.000726C798.924903 232.112307 799.608558 173.11095 799.608558 168.203941 799.608558 110.61396 670.558976 64 511.434139 64 352.310228 64 223.260646 110.61396 223.260646 168.203941 223.260646 170.270694 223.260646 222.944041 224.901232 256.000726L64.410011 256.000726 63.999633 256.000726 64.27291 316.560462C65.913496 365.886052 74.252603 410.443758 108.975415 477.976382 138.367016 535.178737 180.746206 583.084199 235.018027 620.272642 279.856708 651.133949 331.120632 673.343239 387.443418 686.513763 419.97909 719.311448 452.104384 737.388981 479.9925 744.619995L479.9925 811.894493C476.027672 831.909279 451.694932 896.001396 282.454226 896.001396L255.999191 896.001396 255.999191 960.001638 767.999247 960.001638 767.999247 896.001396 741.509011 896.001396C543.013806 896.001396 543.833636 806.342607 543.833636 806.342607L543.833636 744.491369C571.857927 737.260356 603.300492 719.182823 635.699063 686.643264 692.4313 673.471864 743.832326 651.133949 788.945209 620.143142 843.079929 582.955574 885.459119 535.050111 914.85072 477.718257 962.286918 385.780963 960.646332 317.722464 959.689401 269.817001ZM166.528409 451.505834C137.547186 395.206481 130.027909 359.946541 128.388249 316.560462L229.412613 316.560462C231.190301 333.346493 233.377441 350.003898 236.111134 365.627927 253.199726 461.438852 276.575535 524.719842 320.868588 599.353979 253.062625 566.94392 200.021012 516.455452 166.528409 451.505834ZM511.434139 219.208659C378.011204 219.208659 300.089371 186.023348 282.043847 168.203941 300.089371 150.384533 378.011204 117.200097 511.434139 117.200097 644.858 117.200097 722.779832 150.384533 740.825356 168.203941 722.779832 186.023348 644.721825 219.208659 511.434139 219.208659ZM857.433902 451.505834C823.805123 516.843078 770.216957 567.460171 702.000615 599.871105 746.429844 525.107468 769.669477 461.438852 786.75807 365.498426 789.491763 349.874398 791.678903 333.216992 793.45659 316.430962L895.574988 316.430962C893.934401 359.817041 886.278949 395.206481 857.433902 451.505834Z" fill="#272636"></path></g></g></svg>