<?xml version="1.0" standalone="no"?><!DOCTYPE svg PUBLIC "-//W3C//DTD SVG 1.1//EN" "http://www.w3.org/Graphics/SVG/1.1/DTD/svg11.dtd"><svg width="200" height="200" viewBox="0 0 200 200" version="1.1" xmlns="http://www.w3.org/2000/svg" xmlns:xlink="http://www.w3.org/1999/xlink"><defs><style type="text/css"><![CDATA[
@font-face { font-family: ifont; src: url(http://at.alicdn.com/t/font_1442373896_4754455.eot?#iefix) format(embedded-opentype), url(http://at.alicdn.com/t/font_1442373896_4754455.woff) format(woff), url(http://at.alicdn.com/t/font_1442373896_4754455.ttf) format(truetype), url(http://at.alicdn.com/t/font_1442373896_4754455.svg#ifont) format(svg); }

]]></style></defs><g class="transform-group"><g transform="scale(0.1953125, 0.1953125)"><path d="M57.344 370.720768c0-16.748544 5.957632-30.921728 17.87904-42.514432 11.916288-11.598848 26.251264-17.394688 42.998784-17.394688l60.880896 0 0 271.53408-60.880896 0c-16.74752 0-31.082496-5.793792-42.998784-17.389568C63.301632 553.360384 57.344 539.184128 57.344 522.438656L57.344 370.720768 57.344 370.720768zM733.774848 121.407488c27.698176-26.412032 52.826112-40.904704 75.370496-43.483136 22.549504-2.576384 42.517504 3.382272 59.915264 17.87904 17.393664 14.495744 32.208896 35.753984 44.448768 63.776768 12.2368 28.023808 22.226944 59.268096 29.955072 93.734912 7.729152 34.466816 13.52704 70.539264 17.393664 108.22656 3.8656 37.687296 5.796864 73.602048 5.796864 107.746304 0 34.143232-2.413568 68.287488-7.245824 102.428672-4.832256 34.143232-11.921408 66.19648-21.262336 96.155648-9.340928 29.952-20.292608 56.201216-32.856064 78.75072-12.565504 22.545408-26.573824 39.30112-42.0352 50.249728-15.461376 10.952704-32.048128 14.815232-49.7664 11.594752-17.713152-3.223552-36.23424-15.783936-55.56224-37.68832-18.681856-21.899264-43.968512-40.100864-75.854848-54.592512-31.889408-14.495744-66.675712-26.735616-104.361984-36.722688-37.687296-9.982976-75.855872-18.035712-114.512896-24.15616-38.652928-6.120448-74.082304-11.595776-106.293248-16.428032-32.214016-4.834304-59.106304-9.50272-80.692224-14.012416-21.5808-4.508672-33.657856-9.981952-36.23424-16.42496L239.977472 305.982464c2.576384-9.018368 12.725248-16.425984 30.4384-22.226944 17.717248-5.797888 40.262656-11.275264 67.64544-16.427008 27.377664-5.154816 58.298368-10.788864 92.765184-16.909312 34.465792-6.119424 69.573632-14.496768 105.326592-25.124864 35.761152-10.62912 70.7072-24.160256 104.848384-40.585216C675.1488 168.274944 706.069504 147.17952 733.774848 121.407488L733.774848 121.407488zM385.895424 713.769984c3.221504 7.730176 7.084032 16.105472 11.597824 25.124864 3.863552 8.379392 9.018368 18.03776 15.461376 28.988416 6.438912 10.953728 14.175232 22.873088 23.191552 35.755008 10.95168 15.4624 22.065152 31.727616 33.335296 48.801792 11.275264 17.072128 19.813376 32.533504 25.609216 46.383104 5.796864 13.8496 7.569408 25.286656 5.312512 34.305024-2.251776 9.018368-11.431936 13.531136-27.538432 13.531136l-55.077888 0c-12.884992 0-24.8064-2.417664-35.75808-7.251968-10.947584-4.832256-21.419008-12.237824-31.403008-22.226944-9.987072-9.982976-20.291584-22.7072-30.920704-38.167552-10.633216-15.4624-22.066176-33.819648-34.306048-55.081984-14.819328-24.481792-25.124864-45.9008-30.925824-64.260096-5.797888-18.364416-9.660416-33.660928-11.593728-45.902848-2.57536-14.173184-2.57536-26.412032 0-36.717568 5.154816 0.641024 11.275264 1.929216 18.359296 3.864576 5.79584 1.288192 12.884992 2.895872 21.257216 4.832256 8.377344 1.934336 18.041856 3.864576 28.992512 5.793792 10.952704 2.582528 20.774912 4.996096 29.473792 7.252992 8.694784 2.249728 16.586752 4.671488 23.675904 7.245824C372.368384 708.614144 379.452416 711.1936 385.895424 713.769984L385.895424 713.769984z" fill="#272636"></path></g></g></svg>